<?xml version="1.0" encoding="UTF-8" standalone="no"?>
<!-- Uploaded to: SVG Repo, www.svgrepo.com, Transformed by: SVG Repo Mixer Tools -->

<svg
   fill="#000000"
   width="64px"
   height="64px"
   viewBox="0 0 1920 1920"
   version="1.1"
   id="svg1"
   sodipodi:docname="rotate-right-svgrepo-com.svg"
   inkscape:version="1.4 (86a8ad7, 2024-10-11)"
   xmlns:inkscape="http://www.inkscape.org/namespaces/inkscape"
   xmlns:sodipodi="http://sodipodi.sourceforge.net/DTD/sodipodi-0.dtd"
   xmlns="http://www.w3.org/2000/svg"
   xmlns:svg="http://www.w3.org/2000/svg">
  <defs
     id="defs1" />
  <sodipodi:namedview
     id="namedview1"
     pagecolor="#ffffff"
     bordercolor="#000000"
     borderopacity="0.25"
     inkscape:showpageshadow="2"
     inkscape:pageopacity="0.0"
     inkscape:pagecheckerboard="0"
     inkscape:deskcolor="#d1d1d1"
     inkscape:zoom="12.734375"
     inkscape:cx="32"
     inkscape:cy="32"
     inkscape:window-width="1920"
     inkscape:window-height="1017"
     inkscape:window-x="-8"
     inkscape:window-y="-8"
     inkscape:window-maximized="1"
     inkscape:current-layer="svg1" />
  <g
     id="SVGRepo_bgCarrier"
     stroke-width="0" />
  <g
     id="SVGRepo_tracerCarrier"
     stroke-linecap="round"
     stroke-linejoin="round" />
  <g
     id="SVGRepo_iconCarrier"
     style="fill:#ffffff"
     transform="matrix(0.24631961,0,0,0.24631961,1447.0664,1447.0664)"
     inkscape:export-filename="SVGRepo_iconCarrier.png"
     inkscape:export-xdpi="96"
     inkscape:export-ydpi="96">
    <path
       fill-rule="evenodd"
       clip-rule="evenodd"
       d="M 639.999,209.777 H 756.018 L 621.665,75.425 697.09,0 960.201,263.111 700.005,523.307 624.58,447.883 756.019,316.444 h -116.02 c -176.731,0 -320,143.269 -320,320 H 213.332 c 0,-235.642 191.025,-426.667 426.667,-426.667 z m 0,643.556 C 639.999,735.513 735.511,640 853.332,640 h 853.338 c 117.82,0 213.33,95.513 213.33,213.333 v 853.337 c 0,117.82 -95.51,213.33 -213.33,213.33 H 853.332 c -117.821,0 -213.333,-95.51 -213.333,-213.33 z M 853.332,746.667 h 853.338 c 58.91,0 106.66,47.756 106.66,106.666 v 853.337 c 0,58.91 -47.75,106.66 -106.66,106.66 H 853.332 c -58.91,0 -106.667,-47.75 -106.667,-106.66 V 853.333 c 0,-58.91 47.757,-106.666 106.667,-106.666 z"
       id="path1"
       style="fill:#ffffff" />
  </g>
</svg>
