<?xml version="1.0" encoding="UTF-8" standalone="no"?>
<!-- Uploaded to: SVG Repo, www.svgrepo.com, Transformed by: SVG Repo Mixer Tools -->

<svg
   width="64px"
   height="64px"
   viewBox="0 0 24 24"
   fill="none"
   version="1.1"
   id="svg4"
   sodipodi:docname="upload-desktop-svgrepo-com.svg"
   inkscape:version="1.4 (86a8ad7, 2024-10-11)"
   xmlns:inkscape="http://www.inkscape.org/namespaces/inkscape"
   xmlns:sodipodi="http://sodipodi.sourceforge.net/DTD/sodipodi-0.dtd"
   xmlns="http://www.w3.org/2000/svg"
   xmlns:svg="http://www.w3.org/2000/svg">
  <defs
     id="defs4" />
  <sodipodi:namedview
     id="namedview4"
     pagecolor="#ffffff"
     bordercolor="#000000"
     borderopacity="0.25"
     inkscape:showpageshadow="2"
     inkscape:pageopacity="0.0"
     inkscape:pagecheckerboard="0"
     inkscape:deskcolor="#d1d1d1"
     inkscape:zoom="12.734375"
     inkscape:cx="32"
     inkscape:cy="32"
     inkscape:window-width="1920"
     inkscape:window-height="1017"
     inkscape:window-x="-8"
     inkscape:window-y="-8"
     inkscape:window-maximized="1"
     inkscape:current-layer="svg4" />
  <g
     id="SVGRepo_bgCarrier"
     stroke-width="0"
     transform="matrix(0.29488753,0,0,0.29488753,14.807362,14.807362)" />
  <g
     id="SVGRepo_tracerCarrier"
     stroke-linecap="round"
     stroke-linejoin="round"
     transform="matrix(0.29488753,0,0,0.29488753,14.807362,14.807362)" />
  <g
     id="SVGRepo_iconCarrier"
     transform="matrix(0.29488753,0,0,0.29488753,14.807362,14.807362)"
     inkscape:export-filename="SVGRepo_iconCarrier.png"
     inkscape:export-xdpi="96"
     inkscape:export-ydpi="96">
    <path
       d="M 12,4 H 6 C 4.89543,4 4,4.89543 4,6 v 8 c 0,1.1046 0.89543,2 2,2 h 12 c 1.1046,0 2,-0.8954 2,-2 v -2"
       stroke="#ffffff"
       stroke-width="2"
       stroke-linecap="round"
       stroke-linejoin="round"
       id="path1" />
    <path
       d="M 17.5,9 V 3 m 0,0 L 15,5.5 M 17.5,3 20,5.5"
       stroke="#ffffff"
       stroke-width="2"
       stroke-linecap="round"
       stroke-linejoin="round"
       id="path2" />
    <path
       d="m 12,16 v 4"
       stroke="#ffffff"
       stroke-width="2"
       stroke-linecap="round"
       stroke-linejoin="round"
       id="path3" />
    <path
       d="m 8,20 h 8"
       stroke="#ffffff"
       stroke-width="2"
       stroke-linecap="round"
       stroke-linejoin="round"
       id="path4" />
  </g>
</svg>
