<?xml version="1.0" encoding="UTF-8" standalone="no"?>
<!-- Uploaded to: SVG Repo, www.svgrepo.com, Generator: SVG Repo Mixer Tools -->

<svg
   version="1.1"
   id="Layer_1"
   width="800px"
   height="800px"
   viewBox="0 0 24 24"
   enable-background="new 0 0 24 24"
   xml:space="preserve"
   sodipodi:docname="new-file-svgrepo-com.svg"
   inkscape:version="1.4 (86a8ad7, 2024-10-11)"
   xmlns:inkscape="http://www.inkscape.org/namespaces/inkscape"
   xmlns:sodipodi="http://sodipodi.sourceforge.net/DTD/sodipodi-0.dtd"
   xmlns="http://www.w3.org/2000/svg"
   xmlns:svg="http://www.w3.org/2000/svg"
   xmlns:ns="&amp;ns_sfw;"><defs
   id="defs7" /><sodipodi:namedview
   id="namedview7"
   pagecolor="#050505"
   bordercolor="#000000"
   borderopacity="0.25"
   inkscape:showpageshadow="2"
   inkscape:pageopacity="0.0"
   inkscape:pagecheckerboard="true"
   inkscape:deskcolor="#d1d1d1"
   inkscape:export-bgcolor="#0c110d00"
   showborder="true"
   inkscape:zoom="16.3"
   inkscape:cx="288.31288"
   inkscape:cy="341.50307"
   inkscape:window-width="1920"
   inkscape:window-height="1017"
   inkscape:window-x="-8"
   inkscape:window-y="-8"
   inkscape:window-maximized="1"
   inkscape:current-layer="Layer_1" />
<metadata
   id="metadata1">
	<ns:sfw>
		<ns:slices>

</ns:slices>
		<ns:sliceSourceBounds
   width="505"
   height="984"
   bottomLeftOrigin="true"
   x="0"
   y="-984">

</ns:sliceSourceBounds>
	</ns:sfw>
</metadata>
<g
   id="g7"
   transform="matrix(0.01871165,0,0,0.01871165,8.3328221,10.07362)"
   style="fill:#ffffff;fill-opacity:1"
   inkscape:export-filename="g7.png"
   inkscape:export-xdpi="96"
   inkscape:export-ydpi="96">
	<g
   id="g2"
   style="fill:#ffffff;fill-opacity:1">
		<g
   id="g1"
   style="fill:#ffffff;fill-opacity:1">
			<path
   stroke="#2d2d2d"
   stroke-width="2"
   stroke-miterlimit="10"
   d="M 13,7"
   id="path1"
   style="fill:#ffffff;fill-opacity:1" />
		</g>
	</g>
	<g
   id="g4"
   style="fill:#ffffff;fill-opacity:1">
		<g
   id="g3"
   style="fill:#ffffff;fill-opacity:1">
			<path
   d="M 20,8 H 14 C 13.4,8 13,7.6 13,7 V 1 h 2 v 5 h 5 z"
   id="path2"
   style="fill:#ffffff;fill-opacity:1" />
		</g>
	</g>
	<g
   id="g6"
   style="fill:#ffffff;fill-opacity:1">
		<g
   id="g5"
   style="fill:#ffffff;fill-opacity:1">
			<path
   d="M 20,24 H 4 C 3.4,24 3,23.6 3,23 V 1 C 3,0.4 3.4,0 4,0 h 10 c 0.3,0 0.5,0.1 0.7,0.3 l 6,6 C 20.9,6.5 21,6.7 21,7 v 16 c 0,0.6 -0.4,1 -1,1 z M 5,22 H 19 V 7.4 L 13.6,2 H 5 Z"
   id="path4"
   style="fill:#ffffff;fill-opacity:1" />
		</g>
	</g>
</g>
</svg>
