<?xml version="1.0" encoding="UTF-8" standalone="no"?>
<!-- Uploaded to: SVG Repo, www.svgrepo.com, Transformed by: SVG Repo Mixer Tools -->

<svg
   width="64px"
   height="64px"
   viewBox="0 0 24 24"
   fill="none"
   version="1.1"
   id="svg1"
   sodipodi:docname="undo-svgrepo-com.svg"
   inkscape:version="1.4 (86a8ad7, 2024-10-11)"
   xmlns:inkscape="http://www.inkscape.org/namespaces/inkscape"
   xmlns:sodipodi="http://sodipodi.sourceforge.net/DTD/sodipodi-0.dtd"
   xmlns="http://www.w3.org/2000/svg"
   xmlns:svg="http://www.w3.org/2000/svg">
  <defs
     id="defs1" />
  <sodipodi:namedview
     id="namedview1"
     pagecolor="#2b2b2b"
     bordercolor="#000000"
     borderopacity="0.25"
     inkscape:showpageshadow="2"
     inkscape:pageopacity="0.0"
     inkscape:pagecheckerboard="true"
     inkscape:deskcolor="#d1d1d1"
     inkscape:zoom="12.734375"
     inkscape:cx="32.039264"
     inkscape:cy="32"
     inkscape:window-width="1920"
     inkscape:window-height="1017"
     inkscape:window-x="-8"
     inkscape:window-y="-8"
     inkscape:window-maximized="1"
     inkscape:current-layer="svg1" />
  <g
     id="SVGRepo_bgCarrier"
     stroke-width="0"
     transform="matrix(0.38159509,0,0,0.38159509,6.7730061,7.744785)" />
  <g
     id="SVGRepo_tracerCarrier"
     stroke-linecap="round"
     stroke-linejoin="round"
     transform="matrix(0.38159509,0,0,0.38159509,6.7730061,7.744785)" />
  <g
     id="SVGRepo_iconCarrier"
     transform="matrix(0.38159509,0,0,0.38159509,6.7730061,7.744785)"
     inkscape:export-filename="SVGRepo_iconCarrier.png"
     inkscape:export-xdpi="96"
     inkscape:export-ydpi="96">
    <path
       fill-rule="evenodd"
       clip-rule="evenodd"
       d="m 10.7071,4.29289 c 0.3905,0.39053 0.3905,1.02369 0,1.41422 L 8.41421,8 H 13.5 c 3.0376,0 5.5,2.4624 5.5,5.5 0,3.0376 -2.4624,5.5 -5.5,5.5 H 11 c -0.5523,0 -1,-0.4477 -1,-1 0,-0.5523 0.4477,-1 1,-1 h 2.5 C 15.433,17 17,15.433 17,13.5 17,11.567 15.433,10 13.5,10 H 8.41421 l 2.29289,2.2929 c 0.3905,0.3905 0.3905,1.0237 0,1.4142 -0.3905,0.3905 -1.02368,0.3905 -1.41421,0 l -4,-3.99999 c -0.39052,-0.39053 -0.39052,-1.02369 0,-1.41422 l 4,-4 c 0.39053,-0.39052 1.02371,-0.39052 1.41421,0 z"
       fill="#ffffff"
       id="path1" />
  </g>
</svg>
