<?xml version="1.0" encoding="UTF-8" standalone="no"?>
<!-- Uploaded to: SVG Repo, www.svgrepo.com, Transformed by: SVG Repo Mixer Tools -->

<svg
   width="64px"
   height="64px"
   viewBox="0 -4 20 20"
   version="1.1"
   fill="#000000"
   id="svg1"
   sodipodi:docname="view-simple-815-svgrepo-com.svg"
   inkscape:version="1.4 (86a8ad7, 2024-10-11)"
   xmlns:inkscape="http://www.inkscape.org/namespaces/inkscape"
   xmlns:sodipodi="http://sodipodi.sourceforge.net/DTD/sodipodi-0.dtd"
   xmlns="http://www.w3.org/2000/svg"
   xmlns:svg="http://www.w3.org/2000/svg">
  <defs
     id="defs2" />
  <sodipodi:namedview
     id="namedview1"
     pagecolor="#ffffff"
     bordercolor="#000000"
     borderopacity="0.25"
     inkscape:showpageshadow="2"
     inkscape:pageopacity="0.0"
     inkscape:pagecheckerboard="0"
     inkscape:deskcolor="#d1d1d1"
     inkscape:zoom="12.734375"
     inkscape:cx="32"
     inkscape:cy="32"
     inkscape:window-width="1920"
     inkscape:window-height="1017"
     inkscape:window-x="-8"
     inkscape:window-y="-8"
     inkscape:window-maximized="1"
     inkscape:current-layer="svg1" />
  <g
     id="SVGRepo_bgCarrier"
     stroke-width="0" />
  <g
     id="SVGRepo_tracerCarrier"
     stroke-linecap="round"
     stroke-linejoin="round" />
  <g
     id="SVGRepo_iconCarrier"
     transform="matrix(0.23312883,0,0,0.23312883,6.1595092,7.9263804)"
     inkscape:export-filename="SVGRepo_iconCarrier.png"
     inkscape:export-xdpi="96"
     inkscape:export-ydpi="96">
    <title
       id="title1">view_simple [#ffffff]</title>
    <desc
       id="desc1">Created with Sketch.</desc>
    <defs
       id="defs1" />
    <g
       id="Page-1"
       stroke="none"
       stroke-width="1"
       fill="none"
       fill-rule="evenodd">
      <g
         id="Dribbble-Light-Preview"
         transform="translate(-260,-4563)"
         fill="#ffffff">
        <g
           id="icons"
           transform="translate(56,160)">
          <path
             d="m 216,4409.0005 c 0,1.1472 -0.895,2.0763 -2,2.0763 -1.105,0 -2,-0.9291 -2,-2.0763 0,-1.1471 0.895,-2.0763 2,-2.0763 1.105,0 2,0.9292 2,2.0763 m -2,3.9232 c -2.989,0 -5.805,-1.4763 -7.601,-3.9232 1.796,-2.4469 4.612,-3.9242 7.601,-3.9242 2.989,0 5.805,1.4773 7.601,3.9242 -1.796,2.4469 -4.612,3.9232 -7.601,3.9232 M 214,4403 c -4.276,0 -8.001,2.4168 -10,6.0005 1.999,3.5837 5.724,5.9995 10,5.9995 4.276,0 8.001,-2.4158 10,-5.9995 -1.999,-3.5837 -5.724,-6.0005 -10,-6.0005"
             id="view_simple-[#ffffff]" />
        </g>
      </g>
    </g>
  </g>
</svg>
